<?xml version="1.0" encoding="UTF-8" standalone="no"?>
<!DOCTYPE svg PUBLIC "-//W3C//DTD SVG 1.1//EN" "http://www.w3.org/Graphics/SVG/1.1/DTD/svg11.dtd">
<svg width="100%" height="100%" viewBox="0 0 1000 1000" version="1.1" xmlns="http://www.w3.org/2000/svg" xmlns:xlink="http://www.w3.org/1999/xlink" xml:space="preserve" xmlns:serif="http://www.serif.com/" style="fill-rule:evenodd;clip-rule:evenodd;stroke-linejoin:round;stroke-miterlimit:1.41421;">
    <g transform="matrix(0.1,0,0,-0.1,0,511)">
        <path d="M8071.5,4960.1C8009.1,4941.4 7913.4,4903.9 7857.2,4872.7C7649.1,4760.3 7624.2,4714.6 7010.3,3414.1C6698.2,2748.2 6431.8,2190.6 6417.3,2176C6398.6,2153.1 6352.8,2151 6175.9,2163.5C6055.2,2173.9 5736.9,2186.4 5466.3,2194.7L4975.2,2207.2L4877.4,2506.8C4686,3085.3 4353,3645 3947.3,4069.5C3805.8,4217.2 3776.7,4215.2 3616.5,4040.4C3333.5,3728.3 3088,3364.1 2909,2987.5C2848.7,2864.7 2794.6,2766.9 2788.3,2771.1C2780,2775.3 2707.1,2819 2626,2864.7C2085,3176.8 1315.1,3389.1 722.1,3389.1C509.9,3389.1 516.1,3395.3 516.1,3160.2C516.1,2823.1 620.1,2257.1 745,1928.4C770,1861.8 784.5,1799.4 778.3,1789C772,1780.7 736.7,1766.1 699.2,1757.8C566,1730.7 256,1564.3 176.9,1476.9L99.9,1391.6L99.9,1187.7C102,394.9 310.1,-593.4 640.9,-1363.3C963.4,-2118.6 1352.5,-2720 1924.8,-3344.2L2097.5,-3533.6L2097.5,-4126.6C2097.5,-4557.3 2103.7,-4723.8 2122.5,-4742.5C2151.6,-4771.6 7790.6,-4777.9 7838.4,-4748.7C7861.3,-4734.1 7867.5,-4613.4 7869.6,-4120.3L7871.7,-3508.5L8077.7,-3279.6C9103.6,-2133.3 9729.9,-635.1 9811.1,873.4C9821.5,1069 9834,1146 9863.1,1193.8C9923.4,1293.7 9911,1360.3 9817.3,1462.2C9638.4,1655.7 9176.4,1826.3 8518.9,1940.8C8416.9,1959.5 8331.6,1976.2 8327.5,1978.3C8325.4,1982.5 8481.5,2429.8 8677.1,2972.9C9068.3,4063.2 9080.8,4119.4 9018.3,4367C8901.7,4816.5 8487.7,5076.6 8071.5,4960.1ZM8523,4739.5C8737.3,4633.4 8864.3,4429.5 8866.3,4188.1C8868.4,4065.3 8822.6,3928 8275.4,2400.7C7784.3,1025.3 7678.2,742.3 7642.8,736.1C7499.2,702.8 6130.1,611.3 5986.5,625.8L5913.7,632L6219.6,1277C6388.2,1632.8 6554.6,1988.6 6587.9,2067.7C6619.1,2148.8 6893.8,2737.7 7197.6,3378.6C7678.3,4398.2 7759.4,4556.3 7842.6,4639.6C7955,4754 8071.5,4799.8 8258.8,4801.9C8371.1,4804 8416.9,4793.6 8523,4739.5ZM3972.4,3763.6C4548.8,3070.7 4850.5,2288.3 4879.6,1401.9C4892.1,1050.2 4867.1,898.3 4763.1,715.2C4709,617.4 4698.6,611.2 4613.3,604.9C4563.4,600.7 4378.2,602.8 4205.5,611.1L3887,625.8L3887,1789C3887,2916.8 3884.9,2952.2 3847.5,2973C3791.3,3002.1 3770.5,3000 3733.1,2960.5C3704,2931.4 3699.8,2796.1 3699.8,1778.6L3699.8,630L3570.8,636.3C3498,640.5 3319,652.9 3171.3,663.3C3023.6,675.8 2886.2,684.1 2863.3,684.1C2815.4,684.1 2734.3,852.6 2705.2,1019.1C2669.8,1212.6 2696.9,1639.2 2765.5,1995C2879.9,2573.5 3140,3145.7 3510.4,3628.4C3637.3,3794.9 3785.1,3953 3808,3946.8C3816.3,3942.6 3891.2,3861.4 3972.4,3763.6ZM1356.8,3139.4C1483.7,3114.4 1698,3058.3 1835.4,3012.5C2078.9,2933.4 2576.2,2702.5 2678.1,2623.4L2728,2583.9L2684.3,2450.7C2619.8,2257.2 2561.5,2007.5 2534.5,1818.1C2522,1726.5 2505.4,1628.7 2501.2,1601.7C2490.8,1555.9 2436.7,1603.8 1983.1,2057.4C1525.3,2515.2 1473.3,2561 1423.4,2548.5C1388,2540.2 1365.1,2517.3 1356.8,2481.9C1344.3,2432 1396.3,2373.7 1918.6,1851.4L2492.9,1277.1L2492.9,1148.1C2492.9,1039.9 2530.4,871.4 2584.5,744.4C2597,715.3 2567.9,715.3 2270.3,748.6C1785.5,804.8 1577.4,844.3 1531.6,885.9C1381.8,1021.1 1021.8,1674.5 903.2,2026.2C786.7,2373.7 703.4,2810.6 703.4,3077L703.4,3208.1L917.7,3195.6C1034.3,3189.3 1231.9,3164.4 1356.8,3139.4ZM5945,1995C6144.7,1984.6 6311.2,1970 6315.4,1965.9C6325.8,1957.6 5726.5,673.7 5691.2,627.9C5676.6,607.1 5572.6,600.9 5300,600.9L4929.6,600.9L4981.6,713.3C5071.1,906.8 5100.2,1100.3 5085.6,1381.2C5071,1622.6 5039.8,1905.6 5019,1980.5C5008.6,2013.8 5031.5,2015.9 5295.8,2015.9C5453.9,2015.8 5745.2,2005.4 5945,1995ZM8756.1,1709.9C9155.6,1630.8 9498.9,1512.2 9640.4,1406.1C9669.5,1383.2 9675.8,1368.6 9659.1,1347.8C9646.6,1331.2 9630,1295.8 9623.7,1266.7C9594.6,1150.2 9257.5,1017 8704,902.6C8433.5,846.4 7938.3,767.3 7927.9,777.8C7921.7,784 8248.3,1737 8269.1,1770.3C8285.8,1795.2 8406.5,1780.6 8756.1,1709.9ZM953.1,1431.1C1005.1,1329.1 1090.4,1171 1142.5,1083.6C1196.6,996.2 1238.2,921.3 1236.1,919.2C1223.6,906.7 792.9,1010.8 647.2,1060.7C372.5,1158.5 287.2,1220.9 287.2,1327C287.2,1387.3 420.4,1468.5 647.2,1549.6C753.3,1587.1 842.8,1618.3 849,1618.3C855.3,1620.4 903.2,1535.1 953.1,1431.1ZM457.9,944.2C930.2,725.7 1926.9,557.2 3335.6,455.2C3835,417.7 5347.7,405.3 6061.4,432.3C7018.6,467.7 7453.5,505.1 8152.6,611.3C8766.4,702.9 9328.2,842.3 9555.1,958.8L9636.2,1000.4L9621.6,784C9521.7,-672.5 8876.7,-2162.4 7898.7,-3198.6L7732.2,-3373.4L4969.1,-3373.4L2205.8,-3373.4L2043.5,-3200.7C1152.9,-2258.2 537,-972.3 353.9,330.3C308.1,650.7 274.8,1017 291.5,1017C297.7,1017 372.6,983.7 457.9,944.2ZM7694.9,-4080.9L7694.9,-4580.3L4979.5,-4580.3L2264,-4580.3L2264,-3581.5L7694.8,-3581.5L7694.8,-4080.9L7694.9,-4080.9Z" style="fill-rule:nonzero;"/>
    </g>
</svg>
